<svg xmlns="http://www.w3.org/2000/svg" width="19.152" height="16.62" viewBox="0 0 19.152 16.62">
  <defs>
    <style>
      .cls-1 {
        fill: #fff;
        fill-rule: evenodd;
      }
    </style>
  </defs>
  <path class="cls-1" d="M986.76,6156.76c-0.576-.49-0.537-2.49-0.131-3.15q3.985-.135,3.274-4.97c-1.831-.22-3.642.56-4.452-0.79-0.572-.95-0.735-4.99-0.131-6.42a2.355,2.355,0,0,1,1.309-1.04c1.653-.41,5.922-0.26,6.548.78,0.474,0.79.262,3.31,0.262,4.98,0,3.88.036,7.3-1.7,9.03A5.756,5.756,0,0,1,986.76,6156.76Zm10.608,0c-0.577-.49-0.538-2.49-0.131-3.15,2.656-.09,3.753-1.75,3.273-4.97-1.83-.22-3.642.56-4.452-0.79-0.571-.95-0.734-4.99-0.131-6.42a2.357,2.357,0,0,1,1.31-1.04c1.653-.41,5.923-0.26,6.543.78,0.48,0.79.27,3.31,0.27,4.98,0,3.88.03,7.3-1.71,9.03A5.737,5.737,0,0,1,997.368,6156.76Z" transform="translate(-984.938 -6140.19)"/>
</svg>
